<?xml version="1.0" standalone="no"?>
<!DOCTYPE svg PUBLIC "-//W3C//DTD SVG 20010904//EN"
 "http://www.w3.org/TR/2001/REC-SVG-20010904/DTD/svg10.dtd">
<svg version="1.0" xmlns="http://www.w3.org/2000/svg"
 width="258.000000pt" height="258.000000pt" viewBox="0 0 258.000000 258.000000"
 preserveAspectRatio="xMidYMid meet">
<metadata>
Created by potrace 1.11, written by Peter Selinger 2001-2013
</metadata>
<g transform="translate(0.000000,258.000000) scale(0.100000,-0.100000)"
fill="#000000" stroke="none">
<path d="M94 2224 c-10 -37 3 -135 25 -197 22 -65 73 -145 133 -212 l45 -50 1
-98 c2 -113 16 -148 84 -213 47 -46 106 -78 180 -100 26 -8 48 -19 48 -25 0
-6 -14 -27 -30 -48 -40 -49 -69 -133 -64 -184 2 -22 11 -66 19 -97 21 -82 20
-90 -25 -134 -22 -21 -64 -76 -95 -122 -66 -101 -92 -117 -181 -112 -35 2 -64
0 -64 -4 0 -4 25 -16 55 -27 97 -36 260 -46 330 -20 99 37 179 86 226 137 52
57 123 171 134 215 11 41 20 41 55 -4 l33 -40 -33 -28 -34 -28 46 -31 c48 -33
84 -93 107 -177 6 -22 17 -49 25 -60 14 -20 15 -19 46 10 17 17 46 54 63 83
17 28 36 52 41 52 5 0 34 -9 65 -20 31 -10 82 -24 113 -30 l57 -11 10 -52 c17
-81 4 -133 -42 -184 -11 -13 -18 -26 -14 -29 10 -10 117 25 202 66 88 42 138
85 204 173 28 36 53 59 70 63 221 49 484 239 541 391 27 74 24 125 -9 133 -20
4 -32 25 -67 109 -65 154 -148 262 -264 341 -73 50 -144 85 -211 104 -39 12
-78 35 -134 82 -143 116 -306 177 -518 193 -103 8 -177 8 -222 2 -5 0 7 -12
28 -26 35 -24 67 -70 67 -96 0 -7 -21 -57 -46 -111 -45 -97 -46 -98 -43 -193
2 -53 -1 -95 -6 -96 -5 0 -23 40 -41 89 -36 104 -62 144 -147 230 -106 109
-174 147 -411 229 -72 25 -162 60 -201 78 -67 32 -125 75 -125 95 0 21 -20 9
-26 -16z"/>
</g>
</svg>
